# xmcd CD database file
#
# Track frame offsets:
#	150
#	14770
#	26695
#	38800
#	50137
#	63365
#	75015
#	88605
#	100575
#	113505
#	125995
#	139780
#	153482
#	165740
#	178270
#	190800
#
# Disc length: 2688 seconds
#
# Revision: 0
# Processed by: cddbd v1.5PL3 Copyright (c) Steve Scherf et al.
# Submitted via: CDex 1.51
#
DISCID=d20a7e10
DTITLE=Muggsy Spanier - The Great 16
DYEAR=1993
DGENRE=Jazz
TTITLE0=Relaxin' at the Touro
TTITLE1=Mandy, make up your mind
TTITLE2=Bluin' the Blues
TTITLE3=That Da Da Strain
TTITLE4=I wish I could shimmy like my sister Kate
TTITLE5=At Sundown
TTITLE6=Lonesome Road
TTITLE7=Eccentric
TTITLE8=At the Jazz Band Ball
TTITLE9=Dinah
TTITLE10=Big Butter and Egg Man
TTITLE11=Livery Stable Blues
TTITLE12=Black and Blue
TTITLE13=Riverboat Suffle#
TTITLE14=Someday Sweetheart
TTITLE15=Dippermouth Blues
EXTD=YEAR: 1993
EXTT0=
EXTT1=
EXTT2=
EXTT3=
EXTT4=
EXTT5=
EXTT6=
EXTT7=
EXTT8=
EXTT9=
EXTT10=
EXTT11=
EXTT12=
EXTT13=
EXTT14=
EXTT15=
PLAYORDER=
